<svg xmlns="http://www.w3.org/2000/svg" xmlns:v="https://svgstorm.com"
viewBox = "0 0 512 512"
width="512"
height="512">
<g fill="None" fill-opacity="0.0" stroke="#000000" stroke-opacity="0.00" stroke-width="0.3"><path d="
M 0.00 234.00 
C 7.59 114.21 114.28 7.58 234.00 0.00
L 0.00 0.00
L 0.00 234.00 Z"/>
</g>
<g fill="None" fill-opacity="0.0" stroke="#6E6E6E" stroke-opacity="0.99" stroke-width="0.3"><path d="
M 0.00 234.00 
L 0.00 242.00
C 1.56 244.61 1.72 250.46 0.00 253.00
L 0.00 260.00
C 1.54 262.28 1.72 267.79 0.00 270.00
L 0.00 278.00
C 6.57 382.81 87.31 474.38 187.00 503.00
C 177.94 495.85 170.89 483.44 161.25 475.75 C 151.61 468.07 144.05 457.43 134.75 449.25 C 125.45 441.07 117.53 430.78 108.00 423.00
C 111.49 416.46 118.57 411.18 124.00 406.00
C 123.77 405.84 124.00 405.00 124.00 405.00
C 118.34 409.84 112.79 415.38 108.00 421.00
C 95.60 412.39 85.87 398.73 74.00 389.00
C 137.17 325.00 201.05 261.12 265.00 198.00
C 265.88 191.04 256.25 184.77 256.07 176.93 C 255.89 169.08 251.13 158.43 252.00 150.00 C 252.87 141.57 253.66 131.83 255.98 123.98 C 258.29 116.12 261.86 109.59 265.75 102.75 C 269.65 95.92 273.50 90.81 279.25 85.25 C 285.00 79.68 288.99 75.96 295.75 71.75 C 302.50 67.53 309.22 64.85 317.02 62.02 C 324.83 59.20 335.17 57.94 344.00 58.00 C 352.83 58.06 362.98 58.75 371.01 60.99 C 379.04 63.23 385.28 66.92 392.25 70.75 C 399.21 74.59 404.12 78.61 410.00 84.00
C 412.79 86.55 415.06 89.49 418.00 92.00
C 427.23 99.89 435.83 108.89 444.25 117.75 C 452.66 126.62 463.04 134.78 470.75 144.25 C 478.47 153.72 491.03 160.99 498.00 170.00
C 466.27 77.25 374.51 7.02 278.00 0.00
L 270.00 0.00
C 267.72 1.54 262.21 1.72 260.00 0.00
L 253.00 0.00
C 250.39 1.56 244.54 1.72 242.00 0.00
L 234.00 0.00
C 114.28 7.58 7.59 114.21 0.00 234.00 Z"/>
</g>
<g fill="None" fill-opacity="0.0" stroke="#6D6D6D" stroke-opacity="0.78" stroke-width="0.3"><path d="
M 253.00 0.00 
L 242.00 0.00
C 244.54 1.72 250.39 1.56 253.00 0.00 Z"/>
</g>
<g fill="None" fill-opacity="0.0" stroke="#6D6D6D" stroke-opacity="0.76" stroke-width="0.3"><path d="
M 270.00 0.00 
L 260.00 0.00
C 262.21 1.72 267.72 1.54 270.00 0.00 Z"/>
</g>
<g fill="None" fill-opacity="0.0" stroke="#000000" stroke-opacity="0.00" stroke-width="0.3"><path d="
M 498.00 170.00 
C 504.74 189.71 511.00 211.58 511.00 233.00
C 511.00 232.96 512.00 233.00 512.00 233.00
L 512.00 0.00
L 278.00 0.00
C 374.51 7.02 466.27 77.25 498.00 170.00 Z"/>
</g>
<g fill="None" fill-opacity="0.0" stroke="#E3E3E3" stroke-opacity="1.00" stroke-width="0.3"><path d="
M 265.00 198.00 
C 264.22 204.17 253.25 208.23 249.75 213.75 C 246.25 219.28 238.23 224.35 233.75 229.75 C 229.27 235.16 222.65 240.42 217.75 245.75 C 212.85 251.09 207.36 255.95 202.25 261.25 C 197.14 266.55 191.47 271.95 186.25 277.25 C 181.03 282.55 175.49 287.97 170.25 293.25 C 165.00 298.52 160.02 303.48 154.75 308.75 C 149.48 314.02 144.04 319.47 138.75 324.75 C 133.46 330.04 128.04 335.48 122.75 340.75 C 117.47 346.02 112.56 351.00 107.25 356.25 C 101.94 361.50 96.61 367.02 91.25 372.25 C 85.88 377.48 80.71 383.31 75.00 388.00
C 79.35 393.82 85.70 398.23 90.00 404.00
C 99.57 397.44 107.58 387.53 116.25 379.25 C 124.91 370.96 133.17 362.16 141.75 353.75 C 150.33 345.34 158.70 336.73 167.25 328.25 C 175.79 319.77 184.21 311.29 192.75 302.75 C 201.29 294.22 210.24 285.30 218.75 276.75 C 227.26 268.20 235.83 259.80 244.25 251.25 C 252.67 242.70 261.47 234.33 269.75 225.75 C 278.03 217.18 287.26 208.90 295.25 200.25 C 303.24 191.59 314.72 183.34 319.00 174.00
C 307.10 160.87 307.68 139.82 319.77 126.77 C 331.86 113.72 354.26 112.48 368.00 124.00
C 375.15 125.96 383.32 110.36 389.75 105.75 C 396.19 101.15 405.22 90.12 410.00 84.00
C 404.12 78.61 399.21 74.59 392.25 70.75 C 385.28 66.92 379.04 63.23 371.01 60.99 C 362.98 58.75 352.83 58.06 344.00 58.00 C 335.17 57.94 324.83 59.20 317.02 62.02 C 309.22 64.85 302.50 67.53 295.75 71.75 C 288.99 75.96 285.00 79.68 279.25 85.25 C 273.50 90.81 269.65 95.92 265.75 102.75 C 261.86 109.59 258.29 116.12 255.98 123.98 C 253.66 131.83 252.87 141.57 252.00 150.00 C 251.13 158.43 255.89 169.08 256.07 176.93 C 256.25 184.77 265.88 191.04 265.00 198.00 Z"/>
</g>
<g fill="None" fill-opacity="0.0" stroke="#C9C9C9" stroke-opacity="1.00" stroke-width="0.3"><path d="
M 368.00 124.00 
C 382.90 136.48 383.30 160.31 370.25 174.25 C 357.19 188.18 332.33 188.70 319.00 174.00
C 314.72 183.34 303.24 191.59 295.25 200.25 C 287.26 208.90 278.03 217.18 269.75 225.75 C 261.47 234.33 252.67 242.70 244.25 251.25 C 235.83 259.80 227.26 268.20 218.75 276.75 C 210.24 285.30 201.29 294.22 192.75 302.75 C 184.21 311.29 175.79 319.77 167.25 328.25 C 158.70 336.73 150.33 345.34 141.75 353.75 C 133.17 362.16 124.91 370.96 116.25 379.25 C 107.58 387.53 99.57 397.44 90.00 404.00
C 85.70 398.23 79.35 393.82 75.00 388.00
C 80.71 383.31 85.88 377.48 91.25 372.25 C 96.61 367.02 101.94 361.50 107.25 356.25 C 112.56 351.00 117.47 346.02 122.75 340.75 C 128.04 335.48 133.46 330.04 138.75 324.75 C 144.04 319.47 149.48 314.02 154.75 308.75 C 160.02 303.48 165.00 298.52 170.25 293.25 C 175.49 287.97 181.03 282.55 186.25 277.25 C 191.47 271.95 197.14 266.55 202.25 261.25 C 207.36 255.95 212.85 251.09 217.75 245.75 C 222.65 240.42 229.27 235.16 233.75 229.75 C 238.23 224.35 246.25 219.28 249.75 213.75 C 253.25 208.23 264.22 204.17 265.00 198.00
C 201.05 261.12 137.17 325.00 74.00 389.00
C 85.87 398.73 95.60 412.39 108.00 421.00
C 112.79 415.38 118.34 409.84 124.00 405.00
C 141.39 390.14 157.04 372.46 173.25 356.25 C 189.46 340.04 207.19 324.33 222.00 307.00
C 226.52 301.71 231.74 296.62 236.75 291.75 C 241.76 286.88 246.65 281.43 251.75 276.75 C 256.85 272.07 262.07 265.50 267.25 261.25 C 272.43 256.99 276.91 249.45 282.25 246.25 C 287.58 243.04 292.10 231.60 298.00 231.00
C 303.89 230.40 310.34 238.50 317.02 238.98 C 323.71 239.45 332.28 243.60 339.67 243.33 C 347.06 243.06 356.87 244.03 364.00 242.00 C 371.13 239.98 377.94 238.28 384.22 235.22 C 390.50 232.17 395.93 229.33 401.23 225.23 C 406.53 221.13 410.79 217.35 415.25 212.25 C 419.71 207.15 422.82 202.27 426.30 196.30 C 429.79 190.34 432.25 184.24 434.32 177.32 C 436.39 170.41 438.18 161.79 438.00 154.00 C 437.82 146.21 438.18 136.08 436.01 128.99 C 433.84 121.91 432.18 115.53 428.70 109.31 C 425.21 103.08 422.52 97.40 418.00 92.00
C 415.06 89.49 412.79 86.55 410.00 84.00
C 405.22 90.12 396.19 101.15 389.75 105.75 C 383.32 110.36 375.15 125.96 368.00 124.00 Z"/>
</g>
<g fill="None" fill-opacity="0.0" stroke="#5A5A5A" stroke-opacity="1.00" stroke-width="0.3"><path d="
M 298.00 231.00 
C 273.50 256.33 248.29 281.55 223.00 306.00
C 237.91 323.08 258.24 339.42 271.00 356.00
C 269.21 362.51 259.41 365.96 255.75 371.75 C 252.10 377.54 243.51 381.97 240.00 388.00
C 233.46 384.51 228.18 377.44 223.00 372.00
C 211.50 382.01 201.45 394.04 190.00 404.00
C 193.49 410.54 200.56 415.82 206.00 421.00
C 195.99 432.50 183.96 442.55 174.00 454.00
C 156.25 440.07 141.21 421.06 124.00 406.00
C 118.57 411.18 111.49 416.46 108.00 423.00
C 117.53 430.78 125.45 441.07 134.75 449.25 C 144.05 457.43 151.61 468.07 161.25 475.75 C 170.89 483.44 177.94 495.85 187.00 503.00
C 202.23 507.37 218.54 509.98 234.00 512.00
L 278.00 512.00
C 397.80 504.42 504.43 397.72 512.00 278.00
L 512.00 244.00
C 510.25 241.24 511.00 236.51 511.00 233.00
C 511.00 211.58 504.74 189.71 498.00 170.00
C 491.03 160.99 478.47 153.72 470.75 144.25 C 463.04 134.78 452.66 126.62 444.25 117.75 C 435.83 108.89 427.23 99.89 418.00 92.00
C 422.52 97.40 425.21 103.08 428.70 109.31 C 432.18 115.53 433.84 121.91 436.01 128.99 C 438.18 136.08 437.82 146.21 438.00 154.00 C 438.18 161.79 436.39 170.41 434.32 177.32 C 432.25 184.24 429.79 190.34 426.30 196.30 C 422.82 202.27 419.71 207.15 415.25 212.25 C 410.79 217.35 406.53 221.13 401.23 225.23 C 395.93 229.33 390.50 232.17 384.22 235.22 C 377.94 238.28 371.13 239.98 364.00 242.00 C 356.87 244.03 347.06 243.06 339.67 243.33 C 332.28 243.60 323.71 239.45 317.02 238.98 C 310.34 238.50 303.89 230.40 298.00 231.00 Z"/>
</g>
<g fill="None" fill-opacity="0.0" stroke="#5A5A5A" stroke-opacity="1.00" stroke-width="0.3"><path d="
M 319.00 174.00 
C 332.33 188.70 357.19 188.18 370.25 174.25 C 383.30 160.31 382.90 136.48 368.00 124.00
C 354.26 112.48 331.86 113.72 319.77 126.77 C 307.68 139.82 307.10 160.87 319.00 174.00 Z"/>
</g>
<g fill="None" fill-opacity="0.0" stroke="#7E7E7E" stroke-opacity="1.00" stroke-width="0.3"><path d="
M 222.00 307.00 
C 226.18 310.52 230.54 314.72 234.25 318.75 C 237.96 322.79 243.42 327.16 246.75 331.25 C 250.08 335.34 256.38 339.10 258.75 343.25 C 261.13 347.39 271.00 351.50 271.00 356.00
C 258.24 339.42 237.91 323.08 223.00 306.00
C 248.29 281.55 273.50 256.33 298.00 231.00
C 292.10 231.60 287.58 243.04 282.25 246.25 C 276.91 249.45 272.43 256.99 267.25 261.25 C 262.07 265.50 256.85 272.07 251.75 276.75 C 246.65 281.43 241.76 286.88 236.75 291.75 C 231.74 296.62 226.52 301.71 222.00 307.00 Z"/>
</g>
<g fill="None" fill-opacity="0.0" stroke="#666666" stroke-opacity="0.47" stroke-width="0.3"><path d="
M 512.00 244.00 
L 512.00 233.00
C 512.00 233.00 511.00 232.96 511.00 233.00
C 511.00 236.51 510.25 241.24 512.00 244.00 Z"/>
</g>
<g fill="None" fill-opacity="0.0" stroke="#6D6D6D" stroke-opacity="0.78" stroke-width="0.3"><path d="
M 0.00 253.00 
C 1.72 250.46 1.56 244.61 0.00 242.00
L 0.00 253.00 Z"/>
</g>
<g fill="None" fill-opacity="0.0" stroke="#6D6D6D" stroke-opacity="0.76" stroke-width="0.3"><path d="
M 0.00 270.00 
C 1.72 267.79 1.54 262.28 0.00 260.00
L 0.00 270.00 Z"/>
</g>
<g fill="None" fill-opacity="0.0" stroke="#000000" stroke-opacity="0.00" stroke-width="0.3"><path d="
M 0.00 512.00 
L 234.00 512.00
C 218.54 509.98 202.23 507.37 187.00 503.00
C 87.31 474.38 6.57 382.81 0.00 278.00
L 0.00 512.00 Z"/>
</g>
<g fill="None" fill-opacity="0.0" stroke="#000000" stroke-opacity="0.00" stroke-width="0.3"><path d="
M 278.00 512.00 
L 512.00 512.00
L 512.00 278.00
C 504.43 397.72 397.80 504.42 278.00 512.00 Z"/>
</g>
<g fill="None" fill-opacity="0.0" stroke="#B7B7B7" stroke-opacity="1.00" stroke-width="0.3"><path d="
M 124.00 405.00 
C 124.00 405.00 123.77 405.84 124.00 406.00
C 141.21 421.06 156.25 440.07 174.00 454.00
C 183.96 442.55 195.99 432.50 206.00 421.00
C 200.56 415.82 193.49 410.54 190.00 404.00
C 201.45 394.04 211.50 382.01 223.00 372.00
C 228.18 377.44 233.46 384.51 240.00 388.00
C 243.51 381.97 252.10 377.54 255.75 371.75 C 259.41 365.96 269.21 362.51 271.00 356.00
C 271.00 351.50 261.13 347.39 258.75 343.25 C 256.38 339.10 250.08 335.34 246.75 331.25 C 243.42 327.16 237.96 322.79 234.25 318.75 C 230.54 314.72 226.18 310.52 222.00 307.00
C 207.19 324.33 189.46 340.04 173.25 356.25 C 157.04 372.46 141.39 390.14 124.00 405.00 Z"/>
</g>
<g fill="#000000" fill-opacity="0.00" stroke="None">
<path d="
M 0.00 234.00 
C 7.59 114.21 114.28 7.58 234.00 0.00
L 0.00 0.00
L 0.00 234.00 Z"/>
</g>
<g fill="#6E6E6E" fill-opacity="0.99" stroke="None">
<path d="
M 0.00 234.00 
L 0.00 242.00
C 1.56 244.61 1.72 250.46 0.00 253.00
L 0.00 260.00
C 1.54 262.28 1.72 267.79 0.00 270.00
L 0.00 278.00
C 6.57 382.81 87.31 474.38 187.00 503.00
C 177.94 495.85 170.89 483.44 161.25 475.75 C 151.61 468.07 144.05 457.43 134.75 449.25 C 125.45 441.07 117.53 430.78 108.00 423.00
C 111.49 416.46 118.57 411.18 124.00 406.00
C 123.77 405.84 124.00 405.00 124.00 405.00
C 118.34 409.84 112.79 415.38 108.00 421.00
C 95.60 412.39 85.87 398.73 74.00 389.00
C 137.17 325.00 201.05 261.12 265.00 198.00
C 265.88 191.04 256.25 184.77 256.07 176.93 C 255.89 169.08 251.13 158.43 252.00 150.00 C 252.87 141.57 253.66 131.83 255.98 123.98 C 258.29 116.12 261.86 109.59 265.75 102.75 C 269.65 95.92 273.50 90.81 279.25 85.25 C 285.00 79.68 288.99 75.96 295.75 71.75 C 302.50 67.53 309.22 64.85 317.02 62.02 C 324.83 59.20 335.17 57.94 344.00 58.00 C 352.83 58.06 362.98 58.75 371.01 60.99 C 379.04 63.23 385.28 66.92 392.25 70.75 C 399.21 74.59 404.12 78.61 410.00 84.00
C 412.79 86.55 415.06 89.49 418.00 92.00
C 427.23 99.89 435.83 108.89 444.25 117.75 C 452.66 126.62 463.04 134.78 470.75 144.25 C 478.47 153.72 491.03 160.99 498.00 170.00
C 466.27 77.25 374.51 7.02 278.00 0.00
L 270.00 0.00
C 267.72 1.54 262.21 1.72 260.00 0.00
L 253.00 0.00
C 250.39 1.56 244.54 1.72 242.00 0.00
L 234.00 0.00
C 114.28 7.58 7.59 114.21 0.00 234.00 Z"/>
</g>
<g fill="#6D6D6D" fill-opacity="0.78" stroke="None">
<path d="
M 253.00 0.00 
L 242.00 0.00
C 244.54 1.72 250.39 1.56 253.00 0.00 Z"/>
</g>
<g fill="#6D6D6D" fill-opacity="0.76" stroke="None">
<path d="
M 270.00 0.00 
L 260.00 0.00
C 262.21 1.72 267.72 1.54 270.00 0.00 Z"/>
</g>
<g fill="#000000" fill-opacity="0.00" stroke="None">
<path d="
M 498.00 170.00 
C 504.74 189.71 511.00 211.58 511.00 233.00
C 511.00 232.96 512.00 233.00 512.00 233.00
L 512.00 0.00
L 278.00 0.00
C 374.51 7.02 466.27 77.25 498.00 170.00 Z"/>
</g>
<g fill="#E3E3E3" fill-opacity="1.00" stroke="None">
<path d="
M 265.00 198.00 
C 264.22 204.17 253.25 208.23 249.75 213.75 C 246.25 219.28 238.23 224.35 233.75 229.75 C 229.27 235.16 222.65 240.42 217.75 245.75 C 212.85 251.09 207.36 255.95 202.25 261.25 C 197.14 266.55 191.47 271.95 186.25 277.25 C 181.03 282.55 175.49 287.97 170.25 293.25 C 165.00 298.52 160.02 303.48 154.75 308.75 C 149.48 314.02 144.04 319.47 138.75 324.75 C 133.46 330.04 128.04 335.48 122.75 340.75 C 117.47 346.02 112.56 351.00 107.25 356.25 C 101.94 361.50 96.61 367.02 91.25 372.25 C 85.88 377.48 80.71 383.31 75.00 388.00
C 79.35 393.82 85.70 398.23 90.00 404.00
C 99.57 397.44 107.58 387.53 116.25 379.25 C 124.91 370.96 133.17 362.16 141.75 353.75 C 150.33 345.34 158.70 336.73 167.25 328.25 C 175.79 319.77 184.21 311.29 192.75 302.75 C 201.29 294.22 210.24 285.30 218.75 276.75 C 227.26 268.20 235.83 259.80 244.25 251.25 C 252.67 242.70 261.47 234.33 269.75 225.75 C 278.03 217.18 287.26 208.90 295.25 200.25 C 303.24 191.59 314.72 183.34 319.00 174.00
C 307.10 160.87 307.68 139.82 319.77 126.77 C 331.86 113.72 354.26 112.48 368.00 124.00
C 375.15 125.96 383.32 110.36 389.75 105.75 C 396.19 101.15 405.22 90.12 410.00 84.00
C 404.12 78.61 399.21 74.59 392.25 70.75 C 385.28 66.92 379.04 63.23 371.01 60.99 C 362.98 58.75 352.83 58.06 344.00 58.00 C 335.17 57.94 324.83 59.20 317.02 62.02 C 309.22 64.85 302.50 67.53 295.75 71.75 C 288.99 75.96 285.00 79.68 279.25 85.25 C 273.50 90.81 269.65 95.92 265.75 102.75 C 261.86 109.59 258.29 116.12 255.98 123.98 C 253.66 131.83 252.87 141.57 252.00 150.00 C 251.13 158.43 255.89 169.08 256.07 176.93 C 256.25 184.77 265.88 191.04 265.00 198.00 Z"/>
</g>
<g fill="#C9C9C9" fill-opacity="1.00" stroke="None">
<path d="
M 368.00 124.00 
C 382.90 136.48 383.30 160.31 370.25 174.25 C 357.19 188.18 332.33 188.70 319.00 174.00
C 314.72 183.34 303.24 191.59 295.25 200.25 C 287.26 208.90 278.03 217.18 269.75 225.75 C 261.47 234.33 252.67 242.70 244.25 251.25 C 235.83 259.80 227.26 268.20 218.75 276.75 C 210.24 285.30 201.29 294.22 192.75 302.75 C 184.21 311.29 175.79 319.77 167.25 328.25 C 158.70 336.73 150.33 345.34 141.75 353.75 C 133.17 362.16 124.91 370.96 116.25 379.25 C 107.58 387.53 99.57 397.44 90.00 404.00
C 85.70 398.23 79.35 393.82 75.00 388.00
C 80.71 383.31 85.88 377.48 91.25 372.25 C 96.61 367.02 101.94 361.50 107.25 356.25 C 112.56 351.00 117.47 346.02 122.75 340.75 C 128.04 335.48 133.46 330.04 138.75 324.75 C 144.04 319.47 149.48 314.02 154.75 308.75 C 160.02 303.48 165.00 298.52 170.25 293.25 C 175.49 287.97 181.03 282.55 186.25 277.25 C 191.47 271.95 197.14 266.55 202.25 261.25 C 207.36 255.95 212.85 251.09 217.75 245.75 C 222.65 240.42 229.27 235.16 233.75 229.75 C 238.23 224.35 246.25 219.28 249.75 213.75 C 253.25 208.23 264.22 204.17 265.00 198.00
C 201.05 261.12 137.17 325.00 74.00 389.00
C 85.87 398.73 95.60 412.39 108.00 421.00
C 112.79 415.38 118.34 409.84 124.00 405.00
C 141.39 390.14 157.04 372.46 173.25 356.25 C 189.46 340.04 207.19 324.33 222.00 307.00
C 226.52 301.71 231.74 296.62 236.75 291.75 C 241.76 286.88 246.65 281.43 251.75 276.75 C 256.85 272.07 262.07 265.50 267.25 261.25 C 272.43 256.99 276.91 249.45 282.25 246.25 C 287.58 243.04 292.10 231.60 298.00 231.00
C 303.89 230.40 310.34 238.50 317.02 238.98 C 323.71 239.45 332.28 243.60 339.67 243.33 C 347.06 243.06 356.87 244.03 364.00 242.00 C 371.13 239.98 377.94 238.28 384.22 235.22 C 390.50 232.17 395.93 229.33 401.23 225.23 C 406.53 221.13 410.79 217.35 415.25 212.25 C 419.71 207.15 422.82 202.27 426.30 196.30 C 429.79 190.34 432.25 184.24 434.32 177.32 C 436.39 170.41 438.18 161.79 438.00 154.00 C 437.82 146.21 438.18 136.08 436.01 128.99 C 433.84 121.91 432.18 115.53 428.70 109.31 C 425.21 103.08 422.52 97.40 418.00 92.00
C 415.06 89.49 412.79 86.55 410.00 84.00
C 405.22 90.12 396.19 101.15 389.75 105.75 C 383.32 110.36 375.15 125.96 368.00 124.00 Z"/>
</g>
<g fill="#5A5A5A" fill-opacity="1.00" stroke="None">
<path d="
M 298.00 231.00 
C 273.50 256.33 248.29 281.55 223.00 306.00
C 237.91 323.08 258.24 339.42 271.00 356.00
C 269.21 362.51 259.41 365.96 255.75 371.75 C 252.10 377.54 243.51 381.97 240.00 388.00
C 233.46 384.51 228.18 377.44 223.00 372.00
C 211.50 382.01 201.45 394.04 190.00 404.00
C 193.49 410.54 200.56 415.82 206.00 421.00
C 195.99 432.50 183.96 442.55 174.00 454.00
C 156.25 440.07 141.21 421.06 124.00 406.00
C 118.57 411.18 111.49 416.46 108.00 423.00
C 117.53 430.78 125.45 441.07 134.75 449.25 C 144.05 457.43 151.61 468.07 161.25 475.75 C 170.89 483.44 177.94 495.85 187.00 503.00
C 202.23 507.37 218.54 509.98 234.00 512.00
L 278.00 512.00
C 397.80 504.42 504.43 397.72 512.00 278.00
L 512.00 244.00
C 510.25 241.24 511.00 236.51 511.00 233.00
C 511.00 211.58 504.74 189.71 498.00 170.00
C 491.03 160.99 478.47 153.72 470.75 144.25 C 463.04 134.78 452.66 126.62 444.25 117.75 C 435.83 108.89 427.23 99.89 418.00 92.00
C 422.52 97.40 425.21 103.08 428.70 109.31 C 432.18 115.53 433.84 121.91 436.01 128.99 C 438.18 136.08 437.82 146.21 438.00 154.00 C 438.18 161.79 436.39 170.41 434.32 177.32 C 432.25 184.24 429.79 190.34 426.30 196.30 C 422.82 202.27 419.71 207.15 415.25 212.25 C 410.79 217.35 406.53 221.13 401.23 225.23 C 395.93 229.33 390.50 232.17 384.22 235.22 C 377.94 238.28 371.13 239.98 364.00 242.00 C 356.87 244.03 347.06 243.06 339.67 243.33 C 332.28 243.60 323.71 239.45 317.02 238.98 C 310.34 238.50 303.89 230.40 298.00 231.00 Z"/>
</g>
<g fill="#5A5A5A" fill-opacity="1.00" stroke="None">
<path d="
M 319.00 174.00 
C 332.33 188.70 357.19 188.18 370.25 174.25 C 383.30 160.31 382.90 136.48 368.00 124.00
C 354.26 112.48 331.86 113.72 319.77 126.77 C 307.68 139.82 307.10 160.87 319.00 174.00 Z"/>
</g>
<g fill="#7E7E7E" fill-opacity="1.00" stroke="None">
<path d="
M 222.00 307.00 
C 226.18 310.52 230.54 314.72 234.25 318.75 C 237.96 322.79 243.42 327.16 246.75 331.25 C 250.08 335.34 256.38 339.10 258.75 343.25 C 261.13 347.39 271.00 351.50 271.00 356.00
C 258.24 339.42 237.91 323.08 223.00 306.00
C 248.29 281.55 273.50 256.33 298.00 231.00
C 292.10 231.60 287.58 243.04 282.25 246.25 C 276.91 249.45 272.43 256.99 267.25 261.25 C 262.07 265.50 256.85 272.07 251.75 276.75 C 246.65 281.43 241.76 286.88 236.75 291.75 C 231.74 296.62 226.52 301.71 222.00 307.00 Z"/>
</g>
<g fill="#666666" fill-opacity="0.47" stroke="None">
<path d="
M 512.00 244.00 
L 512.00 233.00
C 512.00 233.00 511.00 232.96 511.00 233.00
C 511.00 236.51 510.25 241.24 512.00 244.00 Z"/>
</g>
<g fill="#6D6D6D" fill-opacity="0.78" stroke="None">
<path d="
M 0.00 253.00 
C 1.72 250.46 1.56 244.61 0.00 242.00
L 0.00 253.00 Z"/>
</g>
<g fill="#6D6D6D" fill-opacity="0.76" stroke="None">
<path d="
M 0.00 270.00 
C 1.72 267.79 1.54 262.28 0.00 260.00
L 0.00 270.00 Z"/>
</g>
<g fill="#000000" fill-opacity="0.00" stroke="None">
<path d="
M 0.00 512.00 
L 234.00 512.00
C 218.54 509.98 202.23 507.37 187.00 503.00
C 87.31 474.38 6.57 382.81 0.00 278.00
L 0.00 512.00 Z"/>
</g>
<g fill="#000000" fill-opacity="0.00" stroke="None">
<path d="
M 278.00 512.00 
L 512.00 512.00
L 512.00 278.00
C 504.43 397.72 397.80 504.42 278.00 512.00 Z"/>
</g>
<g fill="#B7B7B7" fill-opacity="1.00" stroke="None">
<path d="
M 124.00 405.00 
C 124.00 405.00 123.77 405.84 124.00 406.00
C 141.21 421.06 156.25 440.07 174.00 454.00
C 183.96 442.55 195.99 432.50 206.00 421.00
C 200.56 415.82 193.49 410.54 190.00 404.00
C 201.45 394.04 211.50 382.01 223.00 372.00
C 228.18 377.44 233.46 384.51 240.00 388.00
C 243.51 381.97 252.10 377.54 255.75 371.75 C 259.41 365.96 269.21 362.51 271.00 356.00
C 271.00 351.50 261.13 347.39 258.75 343.25 C 256.38 339.10 250.08 335.34 246.75 331.25 C 243.42 327.16 237.96 322.79 234.25 318.75 C 230.54 314.72 226.18 310.52 222.00 307.00
C 207.19 324.33 189.46 340.04 173.25 356.25 C 157.04 372.46 141.39 390.14 124.00 405.00 Z"/>
</g>
</svg>